<svg xmlns="http://www.w3.org/2000/svg" width="79.062" height="65.267" viewBox="0 0 79.062 65.267"><defs><style>.a{fill:#ffcd00;}.b{fill:#fff;}.c{fill:#d9af01;}.d,.g{fill:#e30023;}.e{fill:#930017;}.f{fill:#d0002e;}.g{font-size:11px;font-family:Impact;}</style></defs><g transform="translate(0)"><g transform="translate(0 25.617)"><path class="a" d="M6460.667,7084.44h-10.616l5.27-8.7-5.27-8.7h10.616Z" transform="translate(-6450.052 -7067.032)"/><g transform="translate(0.601 0.992)"><path class="b" d="M6461.452,7101.283h10.015v-.45h-9.742Zm0-15.422.273.451h9.742v-.451Z" transform="translate(-6461.452 -7085.861)"/></g><g transform="translate(5.667 15.72)"><path class="c" d="M6557.574,7365.28l4.949,1.688v-1.687Z" transform="translate(-6557.574 -7365.28)"/></g><g transform="translate(68.446)"><path class="a" d="M7748.646,7084.44h10.615l-5.271-8.7,5.271-8.7h-10.615Z" transform="translate(-7748.646 -7067.032)"/><g transform="translate(0 0.992)"><path class="b" d="M7758.661,7101.283h-10.014v-.45h9.742Zm0-15.422-.273.451h-9.742v-.451Z" transform="translate(-7748.647 -7085.861)"/></g><g transform="translate(0 15.72)"><path class="c" d="M7753.594,7365.28l-4.947,1.688v-1.687Z" transform="translate(-7748.646 -7365.28)"/></g></g></g><path class="d" d="M6743.56,6706.261a26.441,26.441,0,1,0,7.743,18.7A26.354,26.354,0,0,0,6743.56,6706.261Zm-18.7,36.544a17.849,17.849,0,1,1,17.849-17.848A17.849,17.849,0,0,1,6724.863,6742.8Z" transform="translate(-6685.333 -6692.323)"/><path class="e" d="M6643.762,6619.651c.4-2,2.418-3.894,2.418-6.012s-2.022-4.009-2.418-6.011c-.408-2.062.729-4.582-.058-6.48-.8-1.931-3.394-2.905-4.543-4.622s-1.072-4.5-2.539-5.962-4.233-1.38-5.962-2.538-2.69-3.743-4.621-4.543c-1.9-.787-4.417.35-6.48-.058-2-.4-3.894-2.418-6.012-2.418s-4.01,2.023-6.012,2.418c-2.062.408-4.582-.729-6.48.058-1.931.8-2.905,3.394-4.621,4.543s-4.5,1.072-5.962,2.538-1.381,4.233-2.539,5.962-3.743,2.69-4.543,4.622c-.787,1.9.35,4.417-.058,6.48-.4,2-2.418,3.894-2.418,6.011s2.022,4.01,2.418,6.012c.408,2.062-.729,4.582.058,6.479.8,1.931,3.394,2.905,4.543,4.622s1.072,4.5,2.539,5.962,4.233,1.38,5.962,2.538,2.691,3.743,4.622,4.543c1.9.787,4.417-.35,6.48.058,2,.4,3.894,2.419,6.012,2.419s4.01-2.022,6.012-2.419c2.063-.408,4.582.729,6.48-.057,1.931-.8,2.9-3.395,4.621-4.544s4.5-1.072,5.962-2.538,1.381-4.233,2.538-5.962,3.743-2.69,4.543-4.622C6644.491,6624.232,6643.354,6621.713,6643.762,6619.651Zm-30.215,20.978a26.99,26.99,0,1,1,26.989-26.99A26.99,26.99,0,0,1,6613.547,6640.629Z" transform="translate(-6574.017 -6581.005)"/><path class="f" d="M6656.083,6622.429a11.29,11.29,0,0,1-1.428-3.152,5.986,5.986,0,0,1-.1-1.152c.006-1.346.324-2.679.318-3.8a3.657,3.657,0,0,0-.235-1.409,5.855,5.855,0,0,0-1.944-2.132,7.714,7.714,0,0,1-3.777-5.642,4.231,4.231,0,0,0-3.824-3.823,7.715,7.715,0,0,1-5.641-3.778,5.863,5.863,0,0,0-2.132-1.944,3.652,3.652,0,0,0-1.409-.235c-1.119-.006-2.452.313-3.8.318a5.993,5.993,0,0,1-1.152-.1,11.29,11.29,0,0,1-3.152-1.428,4.311,4.311,0,0,0-5.47,0,11.263,11.263,0,0,1-3.152,1.428,6,6,0,0,1-1.153.1c-1.346-.006-2.679-.324-3.8-.319a3.655,3.655,0,0,0-1.408.236,5.847,5.847,0,0,0-2.132,1.944,7.719,7.719,0,0,1-5.642,3.778,4.231,4.231,0,0,0-3.824,3.823,7.71,7.71,0,0,1-3.777,5.641,5.865,5.865,0,0,0-1.944,2.133,3.658,3.658,0,0,0-.236,1.408c-.006,1.119.313,2.451.319,3.8a6.064,6.064,0,0,1-.1,1.152,11.29,11.29,0,0,1-1.428,3.152,4.311,4.311,0,0,0,0,5.47,11.3,11.3,0,0,1,1.428,3.153,5.9,5.9,0,0,1,.1,1.152c-.006,1.346-.325,2.679-.319,3.8a3.655,3.655,0,0,0,.236,1.408,5.857,5.857,0,0,0,1.944,2.133,7.709,7.709,0,0,1,3.777,5.642,4.233,4.233,0,0,0,3.824,3.823,7.71,7.71,0,0,1,5.641,3.777,5.854,5.854,0,0,0,2.132,1.944,3.665,3.665,0,0,0,1.41.235c1.118.006,2.45-.313,3.8-.319a5.99,5.99,0,0,1,1.153.1,11.265,11.265,0,0,1,3.152,1.429,4.311,4.311,0,0,0,5.47,0,11.265,11.265,0,0,1,3.152-1.429,6.06,6.06,0,0,1,1.153-.1c1.345.006,2.679.324,3.8.318a3.658,3.658,0,0,0,1.408-.235,5.848,5.848,0,0,0,2.133-1.944,7.71,7.71,0,0,1,5.641-3.777,4.231,4.231,0,0,0,3.824-3.823,7.709,7.709,0,0,1,3.777-5.642,5.863,5.863,0,0,0,1.944-2.132,3.667,3.667,0,0,0,.235-1.409c.006-1.118-.312-2.451-.318-3.8a5.919,5.919,0,0,1,.1-1.153h0a11.248,11.248,0,0,1,1.427-3.152,4.308,4.308,0,0,0,0-5.47Zm-31.013,30.366v0a27.631,27.631,0,1,1,27.63-27.631A27.633,27.633,0,0,1,6625.07,6652.795Z" transform="translate(-6585.54 -6592.53)"/><g transform="translate(5.667 23.93)"><rect class="a" width="67.727" height="17.408"/><g transform="translate(0 0.993)"><g transform="translate(0 14.972)"><rect class="b" width="67.727" height="0.45"/></g><rect class="b" width="67.727" height="0.45"/></g></g><g transform="translate(23.274 7.713)"><path class="b" d="M6894.955,6828.446l-1.012.845-.564-.677a1.6,1.6,0,0,0-.34-.341.182.182,0,0,0-.2.047.2.2,0,0,0-.084.221,1.743,1.743,0,0,0,.287.413l1.509,1.809a1.624,1.624,0,0,0,.342.342.224.224,0,0,0,.3-.25,1.846,1.846,0,0,0-.305-.436l-.408-.489,1.012-.845.126.152a3.894,3.894,0,0,1,.629.928,1.143,1.143,0,0,1-.008.758,1.68,1.68,0,0,1-.562.791,1.944,1.944,0,0,1-.867.451,1.023,1.023,0,0,1-.755-.127,3.806,3.806,0,0,1-.809-.78l-.949-1.137a6.54,6.54,0,0,1-.5-.655,1.151,1.151,0,0,1-.166-.549,1.248,1.248,0,0,1,.141-.637,2.115,2.115,0,0,1,1.373-1.042,1.079,1.079,0,0,1,.742.112,3.383,3.383,0,0,1,.762.727Z" transform="translate(-6891.627 -6821.953)"/><path class="b" d="M6960.719,6777.666l1.92-1.07.494.886-.769.428.468.84.72-.4.469.843-.719.4.542.974.846-.472.493.887-2,1.112Z" transform="translate(-6957.078 -6773.999)"/><path class="b" d="M7032.747,6748.965l.886-.295a7.284,7.284,0,0,1,1.222-.33.872.872,0,0,1,.627.18,1.667,1.667,0,0,1,.5.83,1.477,1.477,0,0,1,.111.8.77.77,0,0,1-.473.414,1,1,0,0,1,.581.081.76.76,0,0,1,.253.231,4.616,4.616,0,0,1,.268.7l.421,1.269-1.162.387-.531-1.6a1.162,1.162,0,0,0-.22-.459c-.061-.048-.178-.043-.35.014l.721,2.17-1.251.415Zm1.525.407.355,1.069a.581.581,0,0,0,.276-.155q.065-.086-.04-.4l-.088-.265c-.051-.152-.111-.244-.182-.273A.493.493,0,0,0,7034.271,6749.372Z" transform="translate(-7025.309 -6747.228)"/><path class="b" d="M7124.173,6727.81l.127,1.006-.776.1.509,4.023-1.308.166-.509-4.023-.773.1-.128-1.007Z" transform="translate(-7109.208 -6727.785)"/><path class="b" d="M7207.029,6727.37l-.138,5.068-1.317-.036.138-5.068Z" transform="translate(-7189.026 -6727.334)"/><path class="b" d="M7253.569,6731.065l2.2.376-.171,1-.9-.154-.163.947.8.137-.163.951-.8-.137-.359,2.1-1.3-.223Z" transform="translate(-7233.682 -6730.868)"/><path class="b" d="M7314.9,6746.973l-1.556,4.825-1.255-.4,1.556-4.825Z" transform="translate(-7289.931 -6745.554)"/><path class="b" d="M7358.935,6767.33l1.972.972-.449.91-.789-.389-.425.862.739.364-.427.864-.738-.363-.493,1,.868.428-.449.909-2.051-1.01Z" transform="translate(-7332.18 -6765.222)"/><path class="b" d="M7415.524,6805.884l.786.6a6.133,6.133,0,0,1,.977.85.989.989,0,0,1,.234.539.914.914,0,0,1-.094.488,6.81,6.81,0,0,1-.548.8l-1.072,1.416a4.1,4.1,0,0,1-.6.689.687.687,0,0,1-.4.152.923.923,0,0,1-.425-.093,3.594,3.594,0,0,1-.595-.386l-1.326-1Zm.527,1.487-2.013,2.659c.152.115.268.155.349.121a1.69,1.69,0,0,0,.427-.456l1.189-1.571a2.721,2.721,0,0,0,.249-.365.211.211,0,0,0,.006-.174A.649.649,0,0,0,7416.051,6807.371Z" transform="translate(-7385.012 -6801.744)"/></g><g transform="translate(33.113 15.9)"><g transform="translate(4.064)"><path class="f" d="M7156.28,6887.157l1.454-.964,1.455.964-.465-1.682,1.366-1.085-1.743-.077-.612-1.636-.611,1.636-1.744.077,1.366,1.085Z" transform="translate(-7155.379 -6882.677)"/></g><g transform="translate(0 4.258)"><path class="f" d="M7079.208,6965.125l.1.967.563-.793.952.208-.582-.781.492-.84-.922.312-.648-.727.013.974-.893.392Z" transform="translate(-7078.279 -6963.471)"/></g><g transform="translate(10.298 4.258)"><path class="f" d="M7274.606,6965.3l.562.793.1-.967.928-.289-.89-.392.011-.974-.648.729-.921-.313.492.84-.582.781Z" transform="translate(-7273.655 -6963.471)"/></g><g transform="translate(0 26.586)"><g transform="translate(4.064 2.401)"><path class="f" d="M7156.28,7432.623l1.454.964,1.455-.964-.465,1.682,1.366,1.086-1.743.076-.612,1.636-.611-1.636-1.744-.076,1.366-1.086Z" transform="translate(-7155.379 -7432.623)"/></g><path class="f" d="M7079.208,7388.042l.1-.968.563.793.952-.207-.582.78.492.84-.922-.312-.648.727.013-.974-.893-.392Z" transform="translate(-7078.279 -7387.075)"/><g transform="translate(10.298)"><path class="f" d="M7274.606,7387.868l.562-.793.1.968.928.289-.89.392.011.974-.648-.729-.921.313.492-.84-.582-.78Z" transform="translate(-7273.655 -7387.075)"/></g></g></g><path class="f" d="M6726.276,7365.279q.272.784.592,1.545h9.766a18,18,0,0,1-.971-1.545Zm40.557,0a17.881,17.881,0,0,1-.971,1.545h9.766q.319-.76.592-1.545Z" transform="translate(-6711.717 -7323.942)"/><g transform="translate(33.112 51.499)"><path class="b" d="M7081.166,7564.443l-.183.836-2.691-.588.153-.7q1.623-1.695,1.95-2.11a1.871,1.871,0,0,0,.384-.676.537.537,0,0,0,0-.313.24.24,0,0,0-.186-.144.233.233,0,0,0-.232.063.936.936,0,0,0-.162.418l-.1.466-1.1-.239.039-.179a3.961,3.961,0,0,1,.185-.64,1.164,1.164,0,0,1,.311-.422,1.071,1.071,0,0,1,.509-.253,1.6,1.6,0,0,1,.665.021,1.564,1.564,0,0,1,1.024.6,1.247,1.247,0,0,1,.174,1,2.234,2.234,0,0,1-.4.844,18.829,18.829,0,0,1-1.674,1.721Z" transform="translate(-7078.292 -7559.938)"/><path class="b" d="M7152.9,7570.728l-.1,1.67a4,4,0,0,1-.112.825,1.139,1.139,0,0,1-.286.47,1.1,1.1,0,0,1-.49.3,1.793,1.793,0,0,1-.621.063,2.31,2.31,0,0,1-.739-.149,1.019,1.019,0,0,1-.453-.353,1.363,1.363,0,0,1-.223-.477,2.874,2.874,0,0,1-.027-.776l.106-1.748a3.339,3.339,0,0,1,.182-1.026,1.027,1.027,0,0,1,.507-.521,1.68,1.68,0,0,1,.871-.155,1.805,1.805,0,0,1,.727.189,1.233,1.233,0,0,1,.465.38,1.168,1.168,0,0,1,.189.48A4.272,4.272,0,0,1,7152.9,7570.728Zm-1.224-.5a1.9,1.9,0,0,0-.009-.5.171.171,0,0,0-.175-.111.179.179,0,0,0-.19.1,1.628,1.628,0,0,0-.074.49l-.149,2.443a1.851,1.851,0,0,0,.01.528.219.219,0,0,0,.365.007,1.565,1.565,0,0,0,.071-.471Z" transform="translate(-7146.133 -7568.38)"/><path class="b" d="M7213.914,7569.148l.368,5-1.249.092-.2-2.683a4.746,4.746,0,0,0-.08-.7.259.259,0,0,0-.166-.166,1.579,1.579,0,0,0-.562-.02l-.123.009-.043-.583a2.281,2.281,0,0,0,1.316-.9Z" transform="translate(-7204.947 -7568.671)"/><path class="b" d="M7260.884,7562.69a.777.777,0,0,1,.481.219,2.314,2.314,0,0,1,.349.974,2.511,2.511,0,0,1,.059.937.967.967,0,0,1-.357.589,1.875,1.875,0,0,1-.8.346,1.848,1.848,0,0,1-.956,0,.968.968,0,0,1-.538-.386,3.253,3.253,0,0,1-.313-.961l-.083-.388,1.225-.26.169.8a1.332,1.332,0,0,0,.124.4.167.167,0,0,0,.187.051.187.187,0,0,0,.165-.149,2.076,2.076,0,0,0-.075-.58l-.072-.339a1.011,1.011,0,0,0-.151-.4.322.322,0,0,0-.225-.131,1.952,1.952,0,0,0-.492.055l-.151-.712a2.541,2.541,0,0,0,.533-.148.241.241,0,0,0,.118-.177,1.037,1.037,0,0,0-.029-.361l-.058-.272a.721.721,0,0,0-.125-.329.188.188,0,0,0-.183-.047.184.184,0,0,0-.156.124.934.934,0,0,0,.031.378l.085.4-1.225.26-.089-.418a1.169,1.169,0,0,1,.12-1.019,1.719,1.719,0,0,1,.969-.464,1.623,1.623,0,0,1,1.261.09,1.388,1.388,0,0,1,.514.885,1.218,1.218,0,0,1,.014.62A1.024,1.024,0,0,1,7260.884,7562.69Z" transform="translate(-7248.958 -7560.568)"/></g></g><text class="g" transform="translate(36.685 36.145)"><tspan x="-21.31" y="0">ISO 27001</tspan></text></svg>