<?xml version="1.0" encoding="utf-8"?>
<!-- Generator: Adobe Illustrator 26.0.2, SVG Export Plug-In . SVG Version: 6.00 Build 0)  -->
<svg version="1.1" id="Layer_1" xmlns="http://www.w3.org/2000/svg" xmlns:xlink="http://www.w3.org/1999/xlink" x="0px" y="0px"
	 viewBox="0 0 924 636" style="enable-background:new 0 0 924 636;" xml:space="preserve">
<style type="text/css">
	.st0{fill:#ECECEC;}
	.st1{fill-rule:evenodd;clip-rule:evenodd;fill:url(#SVGID_1_);}
</style>
<g>
	<g>
		<path class="st0" d="M409.2,318.8L409.2,318.8L409.2,318.8z"/>
		<path class="st0" d="M812.7,311.1c0,0,0-0.1,0-0.4C812.2,310.6,812.7,311.1,812.7,311.1z"/>
		<path class="st0" d="M785.8,379.4c3.3-5.6,5.1-9.2,4.8-9.2c0.7-0.7,2.1-2,2.1-2s0.3-2.4,4.8-3.5s5.8-1.6,7.4-2.4
			c1.6-0.8,6.1-6.1,6.9-8.5c0.8-2.4,2.9-6.6,2.4-8.5s-3.2-10.9-3.7-10.6s-0.3,0.3-3.7-3.5c-3.5-3.7-5.8-6.4-6.4-8
			c-0.5-1.6-1.9-1.9-0.3-4c1.6-2.1,2.4-1.9,2.7-3.7c0.3-1.9,2.4-3.5-1.6-2.1c-4,1.3-1.1,0.5-4.5,0.3c-3.5-0.3-12.5,1.9-8-3.7
			s5.8-9,6.6-9s4.8-4.5,5-0.3c0.3,4.3,1.9,3.2,2.1,5.8c0.3,2.7,5.6-2.9,5.6-2.9s1.9,0.5,3.2,1.9c1.1,1.1,1.3,4.1,1.3,5.2
			c0.2,0.1,0.8,0.4,1.9,1.2c2.9,2.1,6.1,1.1,6.1,5.6s0,4.8,1.9,5.8c1.9,1.1,3.7,0.5,5.3-0.8s4.3-6.1,4.3-6.1s0.3-1.9-4-4.5
			c-4.3-2.7-6.9-4.5-8.5-5.8s-1.1-5.3,0.5-6.9s2.4-2.4,1.9-4.5s0.8-3.7,4.8-3.5c4,0.3,4.8-0.3,4.8-0.3s0.8,0.5,0.8-1.1s5-9,3.7-9
			s0.3-1.9-0.5-4.8s2.7-7.4-0.3-9.6c-2.9-2.1-3.7-3.2-5.6-6.4c-1.9-3.2-1.6-3.7-8.5-4.5c-6.9-0.8-10.1,1.6-11.7-0.5
			c-1.6-2.1-2.4,3.2-3.5-3.2c-1.1-6.4,1.6-10.6,1.6-10.6s4.3-2.7,5.3-4.5c1.1-1.9,5.3-2.7,8.8-1.3c3.5,1.3,8.5,1.1,12.8,1.9
			c4.3,0.8,4,3.5,6.1,0s0-5.1,1.6-6.9c1.6-1.9,3.5-4.8,4.8-2.9c1.3,1.9,4,3.7,6.1,1.3s2.9-2.7,2.9-2.7l1.1,1.1c0,0,2.4-1.3,2.4,1.1
			c0,2.4,2.4,5.1,1.1,6.9c-1.3,1.9-3.2,1.6-3.2,6.1s0,3.7,2.9,7.4s4.8,0.5,5.3,4.5s1.1,3.2,4,5.8c2.9,2.7,2.4,2.7,4.5,4.3
			c2.1,1.6,3.2,3.2,3.2,0.5s0.3-4,0-6.4s2.1-4.3,0.5-8.2c-1.6-4-0.3-3.7-3.5-6.6c-3.2-2.9-5.3,0.5-6.4-3.7c-1.1-4.3,5-6.1,6.6-6.6
			s4-3.7,4.5-1.6c0.5,2.1-4,9.8,3.7,1.6c2.5-2.6,3.8-4.1,4.4-4.8c0.8-0.1,3.9-0.4,4.6,0c0.8,0.5,2.9-2.4,2.1-2.1
			c-0.8,0.3-8.5-4.3-8.5-4.3l-5.6-3.2c0,0,1.9-1.3,3.2-1.1c1.3,0.3,1.6-2.7,2.9-2.9c1.3-0.3,10.4,1.9,12.2,2.9
			c1.9,1.1,8.5,1.3,7.7,0.8s-5-3.7-5.3-4.8s-9.6-3.2-12.5-2.9s-5.6,1.1-8,0.3s-5.8-2.9-7.7-2.9s-25.2-4.5-26.3-4.3
			c-1.1,0.3-2.7,5.3-3.5,4.5s-2.1-0.8-5.8-1.9c-3.7-1.1-8.8-1.9-15.4-2.4c-6.6-0.5-11.2,0.5-13-1.6c-1.9-2.1-5.8-1.3-10.4-1.6
			c-4.5-0.3-9.8,0-12.2,0s-8-0.3-9.3-0.5c-1.3-0.3-2.9-2.1-4.5-2.4c-1.6-0.3-1.3-0.8-4.5-1.3s-2.9-4-4-1.1s-0.5,2.1-2.1,3.2
			c-1.6,1.1-3.2,3.2-4.3,3.2s-5.3,0.3-6.1-0.3c-0.8-0.5-2.1-1.1-4.8-1.1s-2.7,0.3-6.1-0.3c-3.5-0.5-6.1-0.3-9.3-1.9
			c-3.2-1.6-3.2-2.7-5.8-2.4c-2.7,0.3-2.7-0.5-6.4-0.5s-8.2,2.1-10.6,2.4c-2.4,0.3-7.7-0.3-9.6-1.1c-1.9-0.8-2.4-2.7-9.3-1.9
			c-6.9,0.8-10.9,0.8-9.6-1.3c1.3-2.1,2.9-4.3,3.7-4.5c0.8-0.3,2.7-1.6,1.3-2.1c-1.3-0.5-2.7-1.3-5.8-1.6c-3.2-0.3-2.9,1.1-7.7,0.5
			c-4.8-0.5,2.7-1.9-7.2-1.6c-9.8,0.3-12.2,1.1-13.3,1.1s-2.4-2.1-5,1.1c-2.7,3.2-6.4,5-11.7,5.3s-5.6-0.5-10.6,1.3
			c-5,1.9-8.2-0.5-7.2,3.7c1.1,4.3,2.4,5.8,2.4,6.6s-2.4,6.1-5.3,2.9c-2.9-3.2-8.2-15.7-5.8-7.2s7.7,11.4,2.7,12.8
			c-5,1.3-4.5-0.5-5.3-1.1c-0.8-0.5,0-4.3-0.3-6.4c-0.3-2.1-0.8-3.5-1.9-4.5c-1.1-1.1-0.8-2.7-2.9-3.2c-2.1-0.5-0.3-1.6-3.7-1.6
			c-3.5,0-6.4-2.1-5.6,2.7c0.8,4.8,1.6,1.6,3.7,6.1c2.1,4.5,6.1,1.3,3.2,4.5c-2.9,3.2-10.6,2.1-12.5,0.8s-1.3,0.5-4.8-1.9
			s-2.4-4.3-6.4-2.4c-4,1.9-5.3,5.3-6.9,4c-1.6-1.3-5.3,1.9-6.6,0.3c-1.3-1.6-6.6-1.6-7.7,0c-1.1,1.6-4.3,1.3-8.8,3.5
			c-4.5,2.1-3.2,0.3-8.8,4.8s-8.8,8.2-10.6,5.3c-1.9-2.9-12-8-8-8.8s5.8-2.4,8-0.5c2.1,1.9,5.6,1.3,6.1,0s2.9-2.7-0.3-4.3
			s-3.5-0.5-8.5-2.4s0-1.3-6.9-2.4c-6.9-1.1-9.8-1.6-11.7-2.1c-1.9-0.5-4.5,0-7.2-0.3s-4.5-0.8-6.9-0.5s-3.7-0.3-6.9,2.1
			c-3.2,2.4-5.6,3.5-7.7,5.3c-2.1,1.9-7.7,5.6-9.3,6.9c-1.6,1.3-7.2,5.6-7.7,7.2c-0.5,1.6,0.5,2.9-1.6,4s-4.3,1.1-5.8,1.3
			c-1.6,0.3,0-2.4-1.6,0.3s-1.1,12.2,0.3,10.9c1.3-1.3,0.5-5.6,6.4-1.6c5.8,4,9.6,3.5,9.3,7.2c-0.3,3.7,4,3.5,4.5,4.3
			s3.2-1.1,3.2-1.1s5.8-3.7,5.8-5.6c0-1.9,3.7-6.1,3.7-6.1s-2.7-1.3-2.7-4s0.8-3.5,1.3-6.1c0.5-2.7-2.9,0,5-5c8-5,8.5-1.6,8.5-1.6
			s1.1,1.1-0.3,2.7c-1.3,1.6-3.7,5.9-4.3,6.4c-0.5,0.5,2.4,4.8,3.7,4.8c1.3,0,4-1.1,5.6-0.8s4.3-0.8,5-0.3c0.8,0.5,2.7,2.1,1.3,3.5
			c-1.3,1.3-4.3,2.9-6.4,2.4s-5.3-4.3-3.5,1.1c1.9,5.3-0.3,6.6-1.9,6.4c-1.6-0.3-5-2.9-4.5,1.1s-3.5,6.6-4.3,6.6s-2.4-0.3-2.4-0.3
			s-2.4-0.3-3.7-0.3c-1.3,0-4,1.3-4.8,2.4c-0.8,1.1-1.9,0.3-3.2,0.3c-1.3,0,0-1.6-2.7-2.1s-4.3-1.1-5.8,0c-1.6,1.1-4,1.6-5,0.8
			c-1.1-0.8,0.5-2.7-1.6-1.6c-2.1,1.1-3.7,4-4.5,4.3c-0.8,0.3,2.4,0-0.8,0.3c-3.2,0.3-4.5,1.1-6.1,1.6s0.5,3.7-2.4,4.8
			c-2.9,1.1-0.8-1.3-3.7,1.1c-2.9,2.4-3.5,4.5-4.5,4.8c-1.1,0.3-0.8,0.8-3.2,1.1c-2.4,0.3-2.1,0.5-3.5,0.8c-1.3,0.3,0.3,0.8-2.7,0.3
			c-2.9-0.5-5,0.5-4.5,1.6s10.4,4,2.9,3.7c-7.4-0.3-5,1.1-3.5,2.1c1.6,1.1,2.4,2.1,3.2,2.4c0.8,0.3,2.1,3.5,2.1,3.5s2.1-0.3,0.8,1.6
			c-1.3,1.9,0.5,2.4-0.8,4.8s-1.3,0.8-2.4,1.3s-2.7,2.4-5.6,0.8s-5-2.4-8.5-2.7c-3.5-0.3-1.1-0.8-3.5,1.1s-2.9,4-2.7,6.4
			c0.3,2.4,0.5,5.6-0.3,7.2s-0.8,3.2-0.3,5.6s2.1,3.5,2.1,3.5s3.7,0.5,4.5,0.8s2.4-0.5,4.5,0.8s4.3,1.9,5.6,0.3
			c1.3-1.6,6.6-3.5,8.2-5c1.6-1.6,2.7-2.1,1.9-3.7c-0.8-1.6,1.6-5.6,2.9-6.4s4.3-1.6,4.3-1.6l3.2-4.8c0,0,2.7-2.9,4-2.7
			c1.3,0.3,8.8,2.9,8.2-0.5c-0.5-3.5,0.5-4.5,1.3-3.2s2.9,0.8,2.9,0.8s1.1-0.5,1.9,0.3s1.9,4.3,3.5,5c1.6,0.8,2.9,1.6,4,2.1
			s2.1,0,4.3,1.9c2.1,1.9,4.3,2.9,4.5,3.7c0.3,0.8,2.1,2.7,2.1,2.7s1.9,0.5,1.3,1.6c-0.5,1.1-3.2,4.3-4.5,4.8s-4.8-0.5-3.5,0.5
			c1.3,1.1,3.2,2.4,4,1.6s5.8-6.1,5.8-6.1s-0.3,0.3,0-1.3c0.3-1.6,0-3.5,1.3-2.7s2.1,1.9,2.7,0.8c0.5-1.1,1.1-0.5-0.3-1.3
			c-1.3-0.8-4.5-5.3-6.1-5.6c-1.6-0.3-5.6-2.9-5.6-2.9s-0.8-0.8-2.7-2.9c-1.9-2.1-2.4-1.6-2.9-3.5s-2.1-4.3,0.8-3.7
			c2.9,0.5,4.8,2.4,7.4,4c2.7,1.6,2.1,2.1,4.5,3.7s2.7,3.2,4.5,2.9c1.9-0.3,4,1.1,4,3.5s0.5,5,1.1,5.6c0.5,0.5,2.1,1.6,2.7,2.7
			c0.5,1.1,1.6,3.7,2.4,4.8c0.8,1.1,1.6,1.9,2.4,3.2c0.8,1.3,1.1-0.3,1.9,0.3c0.8,0.5,1.9,0.3,1.9-0.8c0-1.1,0.3-2.9,0.3-2.9
			s3.7-1.1,2.7-1.6c-1.1-0.5-4.3-3.7-4-4.8c0.3-1.1,0-3.2,1.3-2.9c1.3,0.3,2.7,2.7,5.6,0.5c2.9-2.1,6.4-3.2,5.3,0s0.3,3.7,0,7.2
			s1.1,2.4,2.9,4.3c1.9,1.9,3.2,2.1,4.5,2.7c1.3,0.5,3.5,0.3,5.6,0.5c2.1,0.3,3.5-0.8,5.3-0.3c1.9,0.5,6.1-0.3,6.9,0.3
			c0.8,0.5,4-1.1,4.3,0.8s1.3-0.3,0.5,4s-1.9,7.2-1.9,7.2c-2.9,5.6-4,6.9-5.3,7.2c-1.3,0.3-2.1,1.1-4.5,0.8c-2.4-0.3-5.3,0-8.8-0.8
			s-9.8,0.8-12.5-0.8c-2.7-1.6-6.4-0.3-8-2.1c-1.6-1.9-4.3-1.6-5.3-2.7c-1.1-1.1-1.6-4-1.6,0.3s-2.4,4.5-2.9,6.6s0.8,1.1-2.1,0.8
			c-2.9-0.3-3.7,1.3-8-1.9c-4.3-3.2-6.4-3.2-8.5-4.5s-4.3,2.4-6.4-1.9s-5-0.8-5.3-4.3s0-3.2,0.3-5.3c0.3-2.1,3.2-4,1.9-4.8
			c-1.3-0.8-0.3-2.1-2.1-1.3c-1.9,0.8-4.5,1.1-6.6,1.9s4.8,0-5.6,0.8s-13.3,1.9-13.3,1.9s-0.8-0.5-2.1,0.5c-1.3,1.1-3.2,2.7-5,1.9
			c-1.9-0.8-2.9-0.5-4.5-0.3c-1.6,0.3-2.7-1.3-4.5,0c-1.9,1.3-4,1.9-4.8,1.3c-0.8-0.5-2.1-2.7-2.1-2.7l-4,5.3l-2.7,2.7l-5.3,2.9
			l-0.8,2.4c0,0-2.1,2.1-1.9,3.5c0.3,1.3,0.3,3.7,0.3,3.7s-3.7,3.5-5.3,4.5c-1.6,1.1-3.7,3.5-3.7,3.5s-1.3,1.6-2.1,2.1
			c-0.8,0.5-2.1,2.1-3.2,3.7s-2.1,2.7-2.7,3.5c-0.5,0.8-2.1,2.7-2.9,5.6s-2.9,6.4-2.9,6.4l-0.5,1.3c0.3,4.5,0.3,5.3,0.8,6.9
			s1.1,1.1,0.5,4.5c-0.5,3.5-0.5,4.8-1.1,6.4c-0.5,1.6-2.1,4.5-2.7,5.8c-0.5,1.3,1.1,3.7,1.1,3.7s0.8,3.5,0.3,4.3s0.3,2.4,0.3,2.4
			s3.2,1.9,4.3,2.9c1.1,1.1,2.9,2.7,3.2,3.5c0.3,0.8,2.4,4.5,2.7,5.3c0.3,0.8,2.4,3.7,2.9,4.5s3.2,3.7,3.2,3.7s3.5,2.7,4.3,3.7
			c0.8,1.1,3.2,1.6,4,2.4s2.7,0.5,3.7,1.3c1.1,0.8,3.2-0.5,4.3,0c1.1,0.5,4-0.5,4.8-1.1c0.8-0.5,2.7-2.4,4-1.6s2.1,0,3.2,0.3
			s2.7-1.1,3.7-1.1c1.1,0,3.7-1.1,4.5-1.1s3.5-1.6,4.5-1.6c1.1,0,2.4-1.1,3.7-0.5c1.3,0.5,0.8-1.1,3.2-0.3c2.4,0.8,3.2,0,4,0.8
			s1.9,0,2.7,1.1c0.8,1.1,2.1,1.9,2.4,2.9c0.3,1.1,1.9,2.1,1.9,2.1l1.6,0.3c0,0,2.1-1.6,2.7-0.5c0.5,1.1,2.9,0.8,2.9,0.8l2.4,2.7
			l0.8,1.1c0,0,1.6,4.3,1.3,5.8c-0.3,1.6-0.3,5-1.1,5.8c-0.8,0.8-1.3,4.3-1.3,4.3s-1.1,1.1,1.3,3.2s4,4,4.8,5c0.8,1.1,2.9,4,3.2,5.8
			c0.3,1.9,0.8,2.9,1.9,5.3s2.4,2.7,2.7,5.3c0.3,2.7,0.8,2.7,0.5,4.5c-0.3,1.9-1.1,2.1-0.3,3.5c0.8,1.3,1.9,3.7,1.6,4.5
			s-0.8,4.3-0.8,4.3l-0.5,1.6l-2.4,4.5l-1.6,2.4c-0.5,1.9-1.6,3.7-1.3,6.4c0.3,2.7-1.3,2.7,0.8,5.3c2.1,2.7,3.2,5.6,4.5,8
			s2.1,4.8,2.4,6.4c0.3,1.6,1.3,2.1,1.9,4.3c0.5,2.1,0.8,3.2,0.8,4.5s-0.3,4.8,0.3,5.6c0.5,0.8,0.8,3.2,1.1,4.3s-0.8,1.3,0.8,3.2
			c1.6,1.9,2.7,2.9,3.7,4.3c1.1,1.3,0.8,0.8,1.6,2.7c0.8,1.9,1.9,2.9,2.1,4.5c0.3,1.6,0.5,5.6,1.3,7.4c0.8,1.9,1.9,3.7,1.9,3.7
			s2.9,1.9,4,1.6c1.1-0.3,3.2-2.7,4.8-1.9c1.6,0.8,2.9,0,4.3,0c1.3,0,2.7-1.6,4-1.6s3.2-2.1,4.3-1.6c1.1,0.5,2.4-0.5,3.7-1.9
			c1.3-1.3,2.1-2.4,4.5-4.5s2.1-2.1,3.7-3.5c1.6-1.3,3.2-4.3,5-4.8c1.9-0.5,2.4-2.4,2.9-3.7s0.8-2.1,1.6-3.2
			c0.8-1.1,0.3,0.3,1.6-3.2s2.9-4.8,4.3-5.6c1.3-0.8,2.1-2.4,2.9-2.7s2.1,0.8,1.6-1.6c-0.5-2.4,0-5.8-0.5-6.6s-1.3,1.9-1.1-2.1
			c0.3-4,3.2-8,3.2-8s4-5,5.3-5.8s1.6-1.6,3.5-2.7s5.8-3.7,5.8-5s1.6-4.8,1.6-5.6c0-0.8,0-1.6-0.5-6.1s0.5-3.5-1.1-7.7
			c-1.6-4.3-1.9-9.6-2.9-10.9c-1.1-1.3-0.5-4.8-0.5-5.8c0-1.1,1.9-3.7,2.7-4.8c0.8-1.1,4.3-5.3,4.3-5.3s5.3-6.1,7.2-9s3.7-5.6,5-6.6
			c1.3-1.1,4.5-3.5,6.4-6.1c1.9-2.7,5.6-7.7,5.8-8.5c0.3-0.8,2.4-3.5,2.4-3.5s2.9-3.5,3.5-5.3c0.5-1.9,3.2-12.2,2.7-11.7
			s-3.7,1.1-4.8,1.3c-1.1,0.3,1.6,1.3-6.1,0.8c-7.7-0.5-11.7,0.8-11.7,0.8c-2.4-0.5-4.3,2.1-5.1-1.6s-1.3-5.8-2.9-8.5
			c-1.6-2.7-2.7-3.7-5-7.2c-2.4-3.5-2.1-1.9-4.3-4.5c-2.1-2.7-2.7-1.9-4-5.3c-1.3-3.5-2.4-2.1-4-6.9s-2.7-5.3-3.5-8
			s-1.9-3.5-2.4-5.8c-0.5-2.4-6.6-14.6-7.4-15.4c-0.8-0.8-2.1-5.1-1.9-4.3c0.3,0.8,4,3.5,4,3.5s2.1-0.8,2.9-0.8c0.8,0,4,2.9,4,4
			s5.6,6.1,6.9,9.8c1.3,3.7,2.9,6.4,3.2,7.4s2.9,5.3,4,6.9s4.5,4.8,5,6.4s5.6,6.9,5.6,10.4s2.4,8,2.7,9c0.3,1.1,5,2.4,5,2.4l6.4-1.6
			c0,0,9.6-6.1,10.6-6.1c1.1,0,9.6-4,9.6-4s3.5-3.2,5.8-5c2.4-1.9,5-5.3,5.6-6.9c0.5-1.6,1.6-1.9,3.7-4.3c2.1-2.4,5-4.8,3.2-6.4
			c-1.9-1.6-2.9-1.1-5.6-3.7c-2.7-2.7-2.4-2.1-4.3-5.6c-1.9-3.5,0.3-7.4-3.7-3.5c-4,4-2.4,5-6.4,5.9c-4,0.8-5.6,3.5-7.4,0.8
			c-1.9-2.7-3.7-1.1-4.8-5c-1.1-4-1.9-4.3-2.1-5.8c-0.3-1.6,0-1.6-2.1-5.6s-0.5-10.1,0.8-6.6s3.5,4,6.9,6.4c3.5,2.4,5,4.3,8.2,4.5
			c3.2,0.3,5.8,0,6.4,0.5c0.5,0.5,1.1-0.3,2.4,0.3c1.3,0.5,1.9-0.8,2.4,1.3c0.5,2.1,3.5,2.4,4.8,3.7c1.3,1.3,1.3,0.8,4.8,1.3
			s8.2,0.5,8.2,0.5l5-0.3l5.8,0.5c0,0,4.3,2.4,5.3,2.4c1.1,0,1.3,2.9,4,4.5s3.2,1.9,4.8,3.7c1.6,1.9,1.3,2.7,3.5,4.5
			c2.1,1.9,5.6-0.3,6.1-1.1c0.5-0.8,3.2-2.1,2.7,0s2.7,1.3,1.9,6.4c-0.8,5-1.3,3.7,0,7.2s7.2,14.1,7.4,17.3c0.3,3.2,1.9,2.1,2.1,5.1
			c0.3,2.9,1.9,4,1.9,6.1s1.9,2.7,2.1,4.3c0.3,1.6,3.2,0.3,4,0s4.5-3.7,4.5-3.7s1.6-0.5,1.3-3.2s0-2.1,0-6.1s-1.6-4-0.8-8
			s2.9-6.4,3.5-8.2s2.7-5,3.7-5.3c1.1-0.3,6.9-3.2,8.2-5.1s3.5-4,5.6-6.1s5.8-4.8,6.6-4s0.5,0.5,1.9,0.5c1.3,0,3.7,1.1,5.6,1.3
			c1.9,0.3,5.6,4.8,6.4,7.2c0.8,2.4,0.3,1.9,3.2,5.3c2.9,3.5,5.6,1.3,5.6,5.6c0,4.3,0,4,1.3,5.6s2.9-2.9,4.5-2.4s1.9-0.5,3.2,3.7
			c1.3,4.3,2.1,4.3,2.4,8.5c0.3,4.3-0.3,0.3-0.3,3.7c0,3.5-0.3,3.7,0.3,6.9c0.5,3.2,2.4,4.3,2.1,4.8c0,0,1.6-4.5,1.1-7.7
			s0-7.7,1.3-9s2.7-2.7,3.7,0.8c1.1,3.5,1.6,0.8,4,4.8s4.5,3.2,4.8,5c0.3,1.9,1.6,2.1,3.5,3.7s3.5-0.3,5.6-1.9s8-7.4,8.2-9.8
			c0.3-2.4,2.7-1.9-1.6-8s-4.3-8.2-8.8-12c-4.5-3.7-7.2-4-3.7-8.8s5-8,7.2-6.6c2.1,1.3,5.8,1.1,5.8,6.4
			C783.2,380,782.1,385.8,785.8,379.4z"/>
		<path class="st0" d="M308.6,468.3c0.5-1.9-2.7-1.3-3.7-3.2c-1.1-1.9-1.6,0-2.7-1.3s-3.2-0.5-4-2.7c-0.8-2.1-4.5-1.3-8.3-3.7
			c-3.7-2.4-2.1-0.3-4.5-0.8s-4.8,0-5.6-0.8c-0.8-0.8-2.1,2.1-3.5,0.3c-1.3-1.9-1.3-0.8-5.1-4.2c-3.7-3.4-1.9-1.1-5.1-1.9
			c-2-0.5-2.6,0.8-2.7,1.4c0-0.1,0-0.2,0-0.3c0-1.9,0,0,0.3-1.9s0,0-1.6-0.8s-2.1,0.3-3.2,0s-4.5,1.3-6.4,1.6
			c-1.9,0.3,2.4-1.6,4.5-5.8c2.1-4.2-0.5-4-1.9-8.2c-1.3-4.2-3.5-4.5-6.4-6.6s-1.1-0.5-2.9-0.5s-3.7,0-5.1-1.6
			c-1.3-1.6-2.7-0.5-3.5-2.1s-1.6-1.9-4.8-5c-3.2-3.2-5.1-2.9-7.2-3.4c-2.1-0.5-2.7-1.1-6.4-4c-1.4-1.1-2-1.4-2.3-1.4
			c0.2,0,0.6-0.2,0.9-1.2c0.8-2.7-5.6-0.3-10.1-1.1c-4.5-0.8-4.3,1.3-5.1-0.3c-0.8-1.6-1.6-1.3-4-2.1c-2.4-0.8-2.9-1.1-4.3-2.4
			c-1.3-1.3-0.5,0.3-2.7,5c-2.1,4.8-0.5,2.9-1.6,4s-2.9,1.9-2.1-2.1c0.8-4,0-1.1-2.4-6.6c-2.4-5.6-3.7,2.9-4.5,2.9s-4,0.8-4,0.8
			s-4.3,5.8-6.7,7.4s-2.9,2.7-2.1,4.2c0.8,1.6-0.5,3.4,2.1,5.6c2.7,2.1-1.9,3.7-1.9,6.1s-3.2,5.8-3.2,5.8l-4,6.6c0,0-2.4,4.2-4,5.6
			c-1.6,1.3-1.9,4.2,0,5.8c1.9,1.6,1.1,2.4,1.6,3.2c0.5,0.8-3.5,3.2-3.5,3.2l-0.5,4.2c0,0,5.9,6.9,6.4,7.7c0.5,0.8,2.7,4.8,4.3,7.2
			c1.6,2.4,2.1,6.4,3.2,7.7c1.1,1.3,2.4,5.8,3.7,6.9s5.6,4.5,6.9,5.8c1.3,1.3,5.9,4.8,8.3,6.6c2.4,1.9,4.3,3.2,6.9,3.2
			c2.7,0,0.3,2.4,3.5,4s-0.8,6.9,0,11.1c0.8,4.2-0.5,8.8,0.3,10.3c0.8,1.6-0.8,6.4,0.5,10.3c1.3,4,0,8.5,0.5,10.6s1.1,11.9,1.1,11.9
			l1.6,21.5c0,0,1.1,1.9,2.1,2.1c1.1,0.3,1.9,3.7,2.9,4.2c1.1,0.5,1.1,2.7,1.9,5c0.8,2.4,0.8,2.7,2.1,3.4c1.3,0.8-0.3,2.9-0.3,3.7
			s-1.6,1.9-2.4,3.4c-0.8,1.6,2.7,5.8,2.7,5.8l2.9,5.6c0,0,4,5.8,5.3,6.9c1.3,1.1,5.3,2.9,7.2,4l0,0c0,0,4,0.8,5.3,0s0,0-0.5-1.6
			s-1.1-1.9-0.8-4.5c0.3-2.7,1.3-2.9,2.7-5.8c1.3-2.9,0.3-1.9,0.3-6.1c0-4.2-1.9-2.9-4.3-2.7c-2.4,0.3-0.8-3.2-0.5-4
			s0.8-1.9,2.1-3.2s1.3-2.1,1.3-2.1s0.8-2.9-0.5-4.5s-1.1-2.1-2.4-2.7c-1.3-0.5-0.5-3.7-0.5-3.7l1.9-0.5l0.5,1.3c0,0,3.2,0.8,4.5,0
			s0.8-2.9,0.5-6.6c-0.3-3.7,0.8-1.3,1.3-2.4c0.5-1.1,3.2,0.8,4.3,1.3s1.6-0.8,2.4-0.8c0.8,0,1.9-3.4,3.7-4.2c1.9-0.8,0,0,0.8-1.1
			s0.8-1.1,1.9-2.9c1.1-1.9-2.9-2.4-5.3-4.2c-2.4-1.9-3.2-2.9-2.7-4.8c0.5-1.9,1.1,0.8,5.1,1.9c4,1.1,3.7,0.3,4.8,0.8
			s0.8-0.8,0.8-0.8s2.7-0.8,3.7-2.7c1.1-1.9,0,0,1.1-2.4s1.3-1.3,4.5-5.3s0.5-1.3,0.8-2.7c0.3-1.3,1.3-3.2,1.3-5s2.4-3.2,4-7.2
			s1.6-4.5,0-7.7s3.7-4.8,5.1-5c1.3-0.3,5.6-1.3,9-2.4c3.5-1.1,1.9-0.5,4.8-2.1s1.9,0.5,2.7-2.1c0.8-2.7,1.1-2.4,3.5-8.5
			c2.4-6.1,0.5-1.9,1.1-4.8c0.5-2.9,0.3-2.9,1.1-6.9c0.8-4,0.3-6.1,1.1-9.5c0.8-3.4,0,0,1.1-3.4s0.8-4,2.1-7.7
			c1.3-3.7,1.1-1.1,2.1-2.4c1.1-1.3,1.1-2.7,2.7-3.7c1.6-1.1,3.5-5.3,4-8C309.4,469.1,308.1,470.2,308.6,468.3z"/>
		<path class="st0" d="M372.8,202.8c2.4-2,3.2-2.4,3.6-4.8c0.4-2.4-1.6-3.6,0.4-8.3c2-4.8,3.2-0.4,10.8-3.2c7.6-2.8,1.6-5.6,5.2-8.7
			c3.6-3.2,2.8-2.8,8-5.2s0,0-0.4-3.2s-4,0-6.8-2.4s-4.8,0.4-6.8,0.4s-4.8,0.8-10.4,0.4c-5.6-0.4-10.4,0.8-13.1,0
			c-2.8-0.8-5.6,0.8-12.3,0c-6.8-0.8-8,0-10-2s-7.2,1.2-12.7,1.2h-11.1c-3.6,0-5.6,0.4-10-0.8s-5.6,0-10.4-0.8s-6-0.8-10.3-1.6
			c-4.4-0.8-2,0-10.4,1.6s-5.6,1.6-8.4,3.6s-8.4,2-8.4,2l-15.9,2l0,0c0,0-0.8,1.6-2,2.4c-1.2,0.8-2.4,0.8-0.4,3.2s2,2.4,7.2,2.8
			c5.2,0.4,1.6,0.8,1.6,0.8s2,1.2,4.8,2c2.8,0.8,1.2,1.2,6.8-1.6c5.6-2.8,1.2-0.4,3.6,0s0,0,2.4-2.8s7.2-2.4,11.1-3.6
			c4-1.2,8-1.6,9.6-2s8-2,13.5-3.2c5.6-1.2-0.4,2.4,2,2.8c2.4,0.4-4.8,3.6-4.8,3.6s-5.2-0.8-10.8-0.4c-5.6,0.4-0.4,3.6,1.2,3.2
			c1.6-0.4,2.8,0.8,7.2,1.2c4.4,0.4,3.6,1.6,6.4,4s2.8,2,4.8,4.4s1.2,4.4,2.4,6.8c1.2,2.4,1.6,6.8,1.6,6.8s-1.2,2.8-2.4,3.6
			c-1.2,0.8-3.6,1.2-7.6,0.4s-0.4,4.8,0,7.2s0.8,6.4,2,8s2.4,4.4,4.4,6.4s3.2,1.6,5.6,3.6s7.2-6,8.8-8c1.6-2,0.8-2.4,3.2-5.6
			c2.4-3.2,4.4-2.8,12.7-5.2c8.4-2.4,4-3.6,5.6-4.4c1.6-0.8,6.8-2.8,9.2-2.8c2.4,0,6.4-1.2,11.9-2.4
			C370.5,202.8,370.5,204.8,372.8,202.8z"/>
		<path class="st0" d="M67.4,361.3c0,0.1,0,0.2,0,0.2C67.4,361.4,67.4,361.3,67.4,361.3z"/>
		<path class="st0" d="M156.2,416.8c0,0-0.8-1.6-2.1-1.9s-4.3-3.7-4.3-3.7s-1.3-1.1-1.3-2.9c0-1.9-1.1-4.8-0.3-8s1.1-7.2,0.8-8.2
			c-0.3-1.1,1.3-1.3-0.5-2.4c-1.9-1.1-5.6-1.3-8-1.3s-5.3,0.8-5.8,1.1c-0.5,0.3,2.9-8,3.5-9.3c0.5-1.3,2.9-7.2,2.9-8
			s0.8-1.1-0.8-2.1c-1.6-1.1-4.3-1.6-5.9-0.8c-1.6,0.8-1.3-1.1-2.7,2.1c-1.3,3.2-2.7,6.6-4.3,7.2c-1.6,0.5-4.8,2.1-4.8,2.1
			s-4-0.3-5.3-0.5c-1.3-0.3-6.9-3.2-8-5c-1.1-1.9-1.6-5.8-1.6-7.7c0-1.9,2.9-7.4,2.7-8.7c-0.3-1.3,2.9-6.6,2.7-7.4
			c-0.3-0.8,0.5-3.4,1.3-4.5s4.8-2.4,5.8-3.4c1.1-1.1,2.9-2.4,4.8-2.9s3.5-1.1,4.8-1.1s4.8-2.9,5.3,0s2.9,1.9,4.3,2.1
			c1.3,0.3,1.6,1.6,3.7-1.9c2.1-3.4,4.3-4.5,4.3-3.7s3.5-0.3,4,0.5s1.6-0.5,3.5,1.1s4.5,1.9,4.3,2.6c-0.3,0.8,1.1,0.8,1.1,1.6
			c0,0.8,1.1-1.9,1.1,2.9s1.3,7.7,1.3,7.7s1.9,4,2.7,3.2s2.4-2.9,2.4-2.9s2.7-1.6,0.8-7.2s-0.5-7.2-1.1-9c-0.5-1.9-0.5-2.9,2.7-5.3
			s10.9-7.7,12.8-8.7c1.9-1.1,6.1-4,6.1-4s1.6-0.8,1.9-2.9c0.3-2.1,5.3-5.8,5.6-6.9s3.7-3.7,3.7-3.7s3.7-2.1,3.5-3.4
			c-0.3-1.3,4.8-3.7,5.6-3.7s5.1,1.3,5.1-1.1s0-2.9,2.7-5s6.1-5.3,7.4-5.3c1.3,0,5.9-2.4,7.7-2.9c1.9-0.5,7.7-3.2,2.4,0
			s-1.9,1.3-2.9,4c-1.1,2.6-1.9,6.1,3.2,2.1c5.1-4,4.8-4.8,6.6-5c1.9-0.3,0.5,0.8,4.5-0.5s4.3-1.9,4.3-1.9s1.9-1.6,0.8-2.4
			c-1.1-0.8,1.1-1.9-2.9-0.3s-3.7,1.9-6.4,1.1s-6.6-0.5-3.7-3.2c2.9-2.7,6.6-3.4,4.3-4.5c-2.4-1.1-8.5,0.3-9.3,0.5
			c-0.8,0.3-2.7-0.3-4.3,0s-1.1-2.1,0-2.6s4.5-2.1,8.8-3.2s14.6-1.3,17-1.3s5.6,0.5,7.4-0.8c1.9-1.3,5.6-3.4,6.1-4.5
			s2.7-2.6,2.7-2.6s2.4-2.4,1.1-3.4c-1.3-1.1-2.7-3.4-3.7-2.9c-1.1,0.5-0.3,3.7-2.4,0.3s-1.9-4-2.9-4.8c-1.1-0.8-2.1-0.3-1.3-4
			c0.8-3.7,0.5-5.3,0.5-5.3s0.8-3.2,0-3.4c-0.8-0.3-1.3-1.1-2.7-0.3c-1.3,0.8-8.8,4.5-10.4,5.3c-1.6,0.8-3.7-3.2-2.9-5
			c0.8-1.9,0.3-0.8-0.8-3.4c-1.1-2.6-5.3-3.2-6.9-3.2c-1.6,0-5.3-2.4-6.4-0.8c-1.1,1.6-6.6,6.6-7.7,7.2c-1.1,0.5-2.7-4.5-3.5,3.7
			s2.9,10.6-1.3,11.1c-4.3,0.5-8,2.9-8,2.9s-3.5,0.3-3.5,2.4s-1.3,7.2-2.9,7.7c-1.6,0.5-5.6-0.3-6.9-1.9c-1.3-1.6,0.3-7.4,0.3-7.4
			l2.4-2.4c0,0-17-2.7-16.8-3.7c0.3-1.1-5.1-2.9-5.6-4.5s-0.8-5-0.3-6.4c0.5-1.3,7.7-7.7,11.4-9s10.1-4.2,12-4.8
			c1.9-0.5,5.1-0.3,6.1-1.6c1.1-1.3,1.3-3.7,1.3-3.7s-0.5-3.7,0.5-3.2s2.9,1.3,3.2,2.1s0.3,2.7,2.1,0.5c1.9-2.1,4.3-2.9,6.4-4
			c2.1-1.1,5.3-0.8,7.2-1.9c1.9-1.1,5.1-2.1,5.3-4.8c0.3-2.6-0.8-1.9-2.1-2.1c-1.3-0.3,0.5,0.3-4,2.4c-4.5,2.1-3.2,0.5-6.4,2.1
			s-3.5,1.9-3.7,0.5c-0.3-1.3,0.5-3.4,0.5-3.4s0.3-0.3-1.6-0.8c-1.9-0.5-1.9,0.3-2.1-2.1c-0.3-2.4,1.3-5.8-1.3-4.8
			c-2.7,1.1-5.1-0.8-6.9,4.5c-1.9,5.3-8.2,10.9-9.8,9.5c-1.6-1.3-1.9-1.6-3.2-1.6s-3.2-1.6-5.6-1.9c-2.4-0.3-9.6-0.3-11.4,0
			c-1.9,0.3-4-1.1-5.6,0.5s-4,3.7-4,4.5s-2.4-2.9-3.2-2.6c-0.8,0.3-2.9-1.1-5.3-1.1c-2.4,0-4-1.3-4.8-1.3s0.8-2.1,0-2.4
			c-0.8-0.3-18.1-0.8-18.1-0.8s-5.6-2.1-7.7-1.9c-2.1,0.3-8,0.5-12.5,1.3s-11.2,3.4-13.3,3.7c-2.1,0.3-6.9,0.3-7.7-1.1
			c-0.8-1.3,0.3-1.1-0.8-1.3c-1.1-0.3-0.3-0.8-2.7-2.6c-2.4-1.9,1.1-3.4-3.7-3.4c-4.8,0-7.7-0.3-12,0s-13,2.4-14.1,2.1
			c-1.1-0.3-9.6,1.3-10.9,0.5c-1.3-0.8-8,2.9-9.3,2.6c-1.3-0.3-6.4,0.3-7.7,1.1s-7.7,2.4-5.6,3.7s1.9,2.6,2.1,3.4
			c0.3,0.8-2.1,2.6-2.1,2.6s-0.5,0-3.5-1.1c-2.9-1.1-6.1-1.6-7.4-0.8s-3.7,2.4-3.2,3.4c0.5,1.1,4.3,3.4,4.8,2.6
			c0.5-0.8,1.9-2.4,3.5-2.1c1.6,0.3,4-1.1,1.9,1.6c-2.1,2.6-4,4-5.3,4.2c-1.3,0.3-4.5,0.5-7.4,0.8s-2.7-1.1-5.3,1.6
			c-2.7,2.6-3.7,1.1-4.3,4c-0.5,2.9-1.1,2.9,0,3.7s-2.1,1.1,0.3,1.9c2.4,0.8,5.3,1.6,5.1,2.4c-0.3,0.8,2.7-1.1,1.1,1.1
			c-1.6,2.1-2.7,4,0.5,1.9s5.1-0.5,7.7-1.9c2.7-1.3,5.3-1.6,6.9-2.7c1.6-1.1,2.4-2.6,4.8-3.4c2.4-0.8,0.8,0.3,1.1,1.6
			c0.3,1.3,0,1.6,1.6,0.5s1.6-0.3,3.7-1.6s4.5-2.7,6.1-1.9s2.1,0.8,3.2,0.8c1.1,0-1.3-0.3,1.1,0c2.4,0.3-1.1-0.8,6.9,1.1
			c8,1.9,10.1,0.5,10.6,3.4s1.6-0.3,2.9,1.6c1.3,1.9,2.1,0.3,2.9,3.4c0.8,3.2,0,11.9-0.5,13s-0.8,1.1-0.5,3.4
			c0.3,2.4,3.5,13.8,2.4,14.6c-1.1,0.8-3.5,1.1-3.5,1.1l-1.3,4.8c0,0-2.1,4-4,6.1s-4.3,4.8-5.6,6.6c-1.3,1.9-2.4,5-4.3,6.9
			c-1.9,1.9-3.5,1.1-2.9,5c0.5,4,0,8.2,0.5,11.1s1.9,6.9,2.9,8.5c1.1,1.6,1.9,1.6,3.7,2.9c1.9,1.3,4.3,2.9,4,4.2
			c-0.3,1.3,0.3,9.5,0.3,9.5s1.6,2.7,1.9,5.6c0.3,2.9,2.1,5.8,2.1,5.8l1.6,3.4c0,0,0.8,0.3,1.9,2.4s1.1,2.1,1.3,3.2
			c0.2,0.6,0.2,0.8,0.2,0.9c-0.1-0.9-0.3-4.5-0.8-5.6c-0.5-1.3-0.5-2.9-1.1-4.5c-0.5-1.6,0.3-3.4-1.3-5.8c-1.6-2.4-1.6-2.6-2.4-5
			c-0.8-2.4-1.9-5-0.8-5.6c1.1-0.5,1.9-4,4,0c2.1,4,2.4,2.9,2.7,6.1c0.3,3.2,1.1,4.2,1.9,5.6c0.8,1.3,2.7,5.8,3.7,7.7
			c1.1,1.9,0-1.1,2.4,2.7c2.4,3.7,2.7,4.5,4,7.4s2.1,2.9,2.9,5s0.3,1.6-0.3,4c-0.5,2.4,0.5,5,0.5,5s3.7,1.3,4,2.1
			c0.3,0.8,4,2.1,4.5,3.2s4,2.4,4,2.4s2.9,1.9,4,2.4s4.3,1.1,4.3,1.1s2.1,0.5,2.9,0.8s3.2,0.3,3.2,0.3s2.1-1.6,2.9-1.1
			s2.7-1.1,3.5,0.3c0.8,1.3,2.4,1.3,3.2,2.4c0.8,1.1,1.6,1.1,2.9,2.4s2.7,1.1,4,2.1c1.3,1.1,2.4,1.1,4,1.1s1.6,0,2.7,0.3
			c1.1,0.3,1.6-0.8,2.7,0.5c1.1,1.3,1.9,2.1,2.7,3.4s2.7,1.3,2.9,3.4c0.3,2.1,0.8,1.9,0.8,3.7c0,1.9,1.1,2.7,1.9,3.2
			c0.8,0.5,3.7,3.2,3.7,3.2l4,0.8l3.2,2.4l3.5,1.1L156.2,416.8z"/>
		<path class="st0" d="M158.1,419.5L158.1,419.5L158.1,419.5z"/>
		<path class="st0" d="M587.2,493.5c-0.8,2.9-3.7,7.2-3.7,7.2l-5.3,2.7c0,0-1.8,1.6-2.9,1.9c-1.1,0.3-3.7,1.6-3.7,1.6
			s-2.4-0.5-1.6,1.9c0.8,2.4,1.1,5.3,0.8,6.1s-0.3,2.4-0.3,4.5s-0.8,4.8-2.1,5.3s-2.6,1.1-2.4,2.9c0.3,1.9,0.3,7.5,0.3,7.5l3.4,5.3
			c0,0,1.1-0.8,3.2-0.8c2.1,0,4.2-1.9,4.2-1.9s2.4,0.5,2.1-2.4c-0.3-2.9,1.1-6.4,0.8-7.2s2.4-4.3,2.4-5.1s2.6-4.5,2.6-5.9
			c0-1.3,1.8-3.5,2.1-5.1s0.5-5.3,1.1-6.4c0.5-1.1,0.8-2.1,0.8-3.2v-3.2L587.2,493.5L587.2,493.5z"/>
		<path class="st0" d="M917.2,536.4c-1.6-2.7,0.8-3.7-1.6-4.8c-2.4-1.1-4-0.5-4.5-2.4s-2.7-1.6-3.5-6.7c-0.8-5.1-4-5.6-4-5.6
			s-3.2-1.3-2.4-1.9c0.8-0.5,1.1-4.3,0.8-5.3c-0.3-1.1-0.3-3.5-1.1-5.1s-1.3-3.7-2.1-5.6s-2.1-2.4-2.7-4.5c-0.5-2.1-1.3-2.9-1.6-3.5
			c-0.3-0.5-0.8-3.2-1.3-0.3c-0.5,2.9-1.6,8.5-1.6,8.5s-2.1,4.5-2.9,5.9c-0.8,1.3-1.6,4.8-2.9,4.5c-1.3-0.3-2.1,1.3-3.2,1.1
			c-1.1-0.3-2.7,0.3-3.5-0.5s-2.9-2.9-4-3.2c-1.1-0.3-1.9-2.4-2.7-2.4s-2.1-1.9-1.9-2.9c0.3-1.1,0.5-3.5,0.8-4.5
			c0.3-1.1,1.9-3.5,1.9-3.5s0-1.6-1.3-1.6s-1.6,0-4.5-0.3s-3.7-0.5-4.8-0.5s1.1-0.5-1.9,0.3c-2.9,0.8-4.2,2.9-6.1,4.8
			c-1.9,1.9-0.3,1.3-1.9,1.9c-1.6,0.5-1.3-1.3-2.4,1.6c-1.1,2.9,0.5,3.7-0.3,4.3c-0.8,0.5-6.4-1.9-6.4-1.9s1.3-0.3,0.3-1.6
			c-1.1-1.3-2.1-3.2-3.7-2.4c-1.6,0.8-2.9,1.3-4,2.7c-1.1,1.3-1.1,2.4-1.9,3.5c-0.8,1.1-2.9,1.1-3.2,2.1c-0.3,1.1-0.3,3.7-1.1,4
			s-1.1-1.1-1.9-1.3c-0.8-0.3-0.5-2.4-1.1-1.1c-0.5,1.3-1.1,1.1-1.9,3.2c-0.8,2.1-1.1,4-1.9,4.3c-0.8,0.3,0,0.5-2.4,1.9
			c-2.4,1.3-2.9,1.3-6.4,2.9c-3.5,1.6-2.7,1.6-5,1.9c-2.4,0.3-2.9,1.1-4.5,1.3c-1.6,0.3-2.7,0.5-4.3,2.1s-2.9,2.1-4,2.4
			c-1.1,0.3-2.1,1.3-2.1,1.3l0,0c-0.8,1.1-1.3,12.5-1.9,13.8c-0.5,1.3-1.6,8.3-1.1,9.8c0.5,1.6,1.3,7.5,0.8,9.3
			c-0.5,1.9,0.3,7.7-1.1,7.5c-1.3-0.3-1.9,0.3-1.9,1.1s1.9,2.4,1.9,2.4s3.2,0,4.5-0.3s4-1.6,6.1-1.6s3.5-1.6,5.3-1.6
			c1.9,0,5.8-1.3,6.9-0.8s2.7-3.2,4.5-2.4c1.9,0.8,5.8-1.9,7.7-1.9s2.7-2.9,4.8-2.4s6.1-1.1,8-0.3s4.8-2.7,6.1,0s5.3,3.7,5.3,5.1
			c0,1.3-0.3,4.3-0.3,4.3l3.2-0.3c0,0,5-3.2,5.8-3.2s2.7-2.7,2.7-1.3c0,1.3-1.6,4.3-2.1,5.6s0.5,2.9,0.5,2.9s2.7,1.3,1.6,3.7
			c-1.1,2.4,0.3,1.9,0,3.7c-0.3,1.9,0,1.1,1.1,2.1c1.1,1.1,2.9,2.9,4.5,2.7c1.6-0.3,2.1-1.9,3.5-1.1c1.3,0.8,4,0.3,4.8,1.3
			c0.8,1.1-5,3.7,5-0.8c10.1-4.5,11.2-5.6,12.5-7.2c1.3-1.6,2.9-3.2,4-4.3s0.3-0.8,3.5-3.2s3.2-1.3,6.1-5.9c2.9-4.5,5-6.1,5.6-6.9
			c0.5-0.8,1.6-1.1,1.9-4.3c0.3-3.2,2.4-6.1,2.4-7.2c0-1.1,0.8-2.7,0.5-4.5C917.5,541.7,918.8,539,917.2,536.4z"/>
		<path class="st0" d="M921.7,483.6c-1.8-1.3-2.6-2.1-8.2-6.6c-5.5-4.5-1.8-1.3-1.3-4.5s-0.5-0.8-1.8-2.1c-1.3-1.3-0.3-2.1-2.9-5
			c-2.6-2.9-1.3-1.3-4.2-2.4s-4-0.8-6.1-2.6c-2.1-1.9-5-1.3-8.4-3.2c-3.4-1.9-4-0.8-4.7-1.9c-0.8-1.1-1.3-0.8-2.9-0.8
			c-1.6,0-1.6,0-2.1,2.4s-2.6,2.4-4.5,3.7c-1.8,1.3-2.9,0.5-4.5-2.1s-1.8-1.3-2.1-6.1c-0.3-4.8-4-2.1-5-1.9l0,0c0,0-2.9-0.5-2.6,0
			c0.3,0.5-0.3,0.8-0.3,0.8l4.2,3.2c4.2,3.2,0,2.7,0,2.7s-0.5,1.9,0.5,3.2c1.1,1.3,2.6,0.8,4.7,1.3c2.1,0.5,2.1,0.5,2.9,0.8
			c0.8,0.3,1.1,0.3,1.1,0.3s2.9,1.3,4.7,1.9c1.8,0.5,1.8,2.4,3.7,2.9c1.8,0.5,1.1,3.2,1.1,3.2s0.5,2.1-0.3,3.7s0.5,2.1,2.6,1.3
			c2.1-0.8,1.8,0.8,3.2,1.9c1.3,1.1,4,2.1,6.3,1.3c2.4-0.8,1.6,2.1,3.4,0.3c1.8-1.9,3.2-3.4,4.5-3.4s2.4,0.5,3.2,2.1
			s4.2,2.9,5.8,4.8s4,2.4,4.5,3.2c0.5,0.8,5.5,0.8,7.1,0.8C924.9,486.5,923.6,484.9,921.7,483.6z"/>
		<path class="st0" d="M772.8,458.7c-0.3-0.8-1.1-2.9-2.1-3.7c-1.1-0.8-2.1-2.6-4-6c-1.8-3.4,0,0-4-5.5s-3.7-2.1-6.6-3.9
			c-2.9-1.8-3.7-2.6-5-4.2s-2.9-6-5-5.8c-2.1,0.3-3.4-1.1-3.4-1.1l0,0l-0.8,0.3c0,0,1.8,2.4,2.6,3.4c0.8,1.1,0.5,2.6,2.4,4.5
			c1.8,1.8,2.1,3.4,3.2,3.9c1.1,0.5,3.2,5.3,4,6.8c0.8,1.6,2.4,3.2,3.4,4.7c1.1,1.6,3.2,5,5,8.1c1.8,3.2,3.2,4.5,4.2,6
			c1.1,1.6,4.2,3.2,4.2,3.2s1.3-0.3,2.9-2.1c1.6-1.8,1.1-3.9,1.1-4.7C774.9,461.9,773.1,459.5,772.8,458.7z"/>
		<path class="st0" d="M794.1,458.7c1.9-0.5,7.8,0,7.8,0s2.1,0.8,3.5,0.8c1.3,0,1.6-0.5,2.4-0.5c0.8,0,2.4-2.7,2.1-3
			c-0.3-0.3-1.1-1.1,0.5-2.7s3.5-2.1,3.8-4s-0.5-1.9,0.3-3s2.7-0.8,2.1-1.9c-0.5-1.1,0.5-0.8-0.5-3c-1.1-2.1-2.4-3-1.3-5.6
			c1.1-2.7,2.1-3.2,1.9-4.8c-0.3-1.6,1.3-2.2-0.5-4c-1.9-1.9-2.7-2.4-4-3l-1.3-0.5l0,0c-1.1,1.6-4.6,6.4-5.9,6.7
			c-1.3,0.3-2.7,1.6-3.8,1.3s-3.5,0-4.3,3.5s-2.1,5.4-3,5.1c-0.8-0.3,1.3,5.1-3.2,3c-4.6-2.2-2.9,1.9-3.5,3c-0.5,1.1,0.8,4,1.1,5.1
			s1.1,3,2.1,4.6C791.4,457.3,792.2,459.2,794.1,458.7z"/>
		<path class="st0" d="M233.5,200.9c2.4-1.2-0.4-5.2,8.7-2c9.1,3.2,8.3-0.4,10.3,4.4c2,4.8,3.6,8.4,2.4,9.6
			c-1.2,1.2-1.6,2.4-5.5,3.6c-4,1.2-5.6,2.8-2.8,4.8s7.9,4,10.3,5.2c2.4,1.2,9.5,1.6,5.9-2.4s0.8-5.2,0.8-5.2s6.7,5.2,4.4-0.8
			c-2.4-6-4-6-2.4-6s4.8,2,4.8,2l1.6-3.2l-1.6-5.2l-5.2-5.2c0,0,4.4-4-1.6-4.8c-5.9-0.8-5.5-0.8-8.7-2.8s-3.6-2.8-9.5-1.6
			s-7.9,2-7.9,2l-2.8-2.8l0,0c-2,2-6.7,4.8-5.6,6S231.2,202.2,233.5,200.9z"/>
		<path class="st0" d="M149.8,196.1c1.6,1.2,3.6,0.8,5.9,0.8c2.4,0,1.2-0.4,0.8,3.2c-0.4,3.6,2,3.2,2.8,4.4s1.6-0.4,5.2,0.4
			c3.6,0.8,2,0.8,5.2-0.8s4.8-0.4,6.7,0.8c2,1.2,6.7-2,11.1-2.4c4.4-0.4,0.8-2,2.4-7.7c1.6-5.7-6.7,1.6-9.1,0.4
			c-2.4-1.2-5.2,1.6-7.5,0.8c-2.4-0.8-5.6-3.6-8.3-6.1c-2.8-2.4-6.3,0.4-8.7-1.2c-2.4-1.6-8.7,4-11.1,6.5
			C145,195.3,148.2,194.9,149.8,196.1z"/>
		<path class="st0" d="M412.2,243.7c3.5,2.7,6.9,5.3,10.7,8.3c-2.3,0.9-4.2,1.7-6,2.4c0.1,2.9,0.2,5.4,0.5,9
			c-0.7,0.9-2.1,2.9-4.5,6.1c5-1.3,8.2-2.9,11.4-2.8c5.8,0.1,9.2-2.7,11.8-6.6c0.7-0.9,0.1-3.7-0.8-4.2c-4.5-2.5-5.5-6.9-7.7-10.7
			c-1-1.8-2.1-3.7-3.4-5.9c0.1-0.8,0.5-2.4,0.8-3.9c-4.2-0.3-8.4-8.5-12.1,0.7c-0.9-1.6-1.5-2.7-2.5-4.5c-1,2.1-1.6,3.4-2.2,4.5
			C414.8,238,415.1,238.7,412.2,243.7z"/>
		<path class="st0" d="M399.7,255.6c-2.2,9.8,1.3,7.2,8.1,5.1c4.6-1.4,5.5-2.8,5.2-6.4c-0.1-1,0.1-2.2,0.5-3.1
			c1.6-4-0.9-4.6-5.9-4.7c-0.8,0.8-2.3,3.1-4,3.4C398.7,250.4,400.4,252.5,399.7,255.6z"/>
	</g>
	
		<linearGradient id="SVGID_1_" gradientUnits="userSpaceOnUse" x1="312.8774" y1="0.8571" x2="313.3006" y2="0.8571" gradientTransform="matrix(1.959435e-14 320 -903 5.529281e-14 1236 -99993.5)">
		<stop  offset="0" style="stop-color:#FFFFFF"/>
		<stop  offset="1" style="stop-color:#FFFFFF;stop-opacity:0"/>
	</linearGradient>
	<path class="st1" d="M924,0v285.7H0V0H924z"/>
</g>
</svg>
